<svg width="26" height="27" viewBox="0 0 26 27" fill="none" xmlns="http://www.w3.org/2000/svg">
<path d="M20.0911 14.812V17.6052C20.0911 19.5649 18.5571 21.1537 16.665 21.1537H9.33521C7.44316 21.1537 5.90918 19.5649 5.90918 17.6052V10.0133C5.90918 8.05355 7.44316 6.46472 9.33521 6.46472H14.4961C13.5144 6.95704 12.6153 7.61263 11.8208 8.41586C11.4802 8.76054 11.1572 9.13897 10.8619 9.54059C10.227 10.4033 9.73026 11.3481 9.3863 12.3479C9.18294 12.9395 9.03163 13.5477 8.93676 14.1544C8.87741 14.5338 8.8161 14.9858 8.80735 15.4625C8.79762 16.0289 8.80151 16.7006 8.90708 17.389C8.97179 17.8123 9.04039 18.166 9.12358 18.5016C9.28413 19.1527 9.8514 19.6273 10.5028 19.6551C10.5228 19.6561 10.5423 19.6566 10.5617 19.6566C11.2195 19.6566 11.831 19.1698 11.9843 18.5243C11.9896 18.5021 12.0013 18.4638 12.013 18.4265C12.0251 18.3862 12.0378 18.3459 12.049 18.3051C12.2037 17.7553 12.4275 17.2121 12.7136 16.6906C12.952 16.2567 13.238 15.8455 13.564 15.4686C13.8394 15.1501 14.1337 14.8619 14.4387 14.6109C14.8469 14.2753 15.2814 13.9896 15.7304 13.7613C16.1279 13.5593 16.5385 13.3965 16.9511 13.2781C17.0912 13.2378 17.2362 13.2015 17.3865 13.1682C17.3865 13.3592 17.387 13.5512 17.3885 13.7422C17.3894 13.9241 17.3924 14.3499 17.6721 14.746C17.963 15.1582 18.4024 15.3945 18.8777 15.3945C19.228 15.3945 19.5617 15.267 19.842 15.0256C19.9242 14.9551 20.0079 14.8835 20.0911 14.8125V14.812ZM18.3615 13.7351C18.3625 13.8798 18.3703 14.0274 18.4573 14.1509C18.5654 14.3035 18.7181 14.3867 18.8777 14.3867C18.9935 14.3867 19.1127 14.3428 19.2202 14.2506C19.5034 14.0067 19.7899 13.7669 20.0735 13.5235C20.581 13.0886 21.087 12.6517 21.5954 12.2174C22.0916 11.7936 22.5903 11.3723 23.087 10.949C23.5599 10.5464 24.0313 10.1423 24.5032 9.73812C24.5631 9.68672 24.6195 9.63028 24.676 9.57485C24.8652 9.38941 24.8681 9.03517 24.6701 8.85174C24.5193 8.71216 24.3636 8.57812 24.2079 8.44458C23.8766 8.15988 23.5434 7.87769 23.2111 7.59399C22.8272 7.26544 22.4438 6.93638 22.0595 6.60783C21.7277 6.32363 21.3949 6.04043 21.0631 5.75673C20.6793 5.42818 20.2954 5.09913 19.9115 4.77109C19.6756 4.56952 19.443 4.36292 19.2012 4.16841C19.0966 4.08426 18.9818 4.04546 18.8719 4.04546C18.6359 4.04546 18.4218 4.22334 18.381 4.51258C18.3693 4.59724 18.362 4.68341 18.3615 4.76857C18.3596 5.27449 18.3605 5.78042 18.3605 6.28584V6.44658C18.3284 6.45465 18.309 6.4617 18.289 6.46372C18.0628 6.4869 17.8346 6.49849 17.6103 6.53376C17.3043 6.58163 16.9978 6.63253 16.6971 6.70811C16.1586 6.84366 15.6361 7.03263 15.1306 7.26947C14.1473 7.73105 13.2721 8.3569 12.5005 9.13696C12.1886 9.4524 11.9001 9.79153 11.6354 10.1513C11.0657 10.9253 10.6181 11.7684 10.3029 12.686C10.1204 13.2166 9.98422 13.7583 9.89762 14.3146C9.8373 14.7011 9.78767 15.0886 9.78086 15.4802C9.77064 16.0657 9.7794 16.6492 9.86843 17.2307C9.92097 17.5744 9.98374 17.9156 10.0664 18.2522C10.1229 18.4815 10.3258 18.6387 10.5432 18.6477C10.5495 18.6477 10.5554 18.6477 10.5617 18.6477C10.7894 18.6477 10.9952 18.4689 11.039 18.2834C11.0599 18.1952 11.0901 18.1096 11.1144 18.0224C11.2949 17.3809 11.5484 16.7727 11.8675 16.1922C12.1434 15.6903 12.4679 15.2252 12.8391 14.7959C13.1441 14.4431 13.4745 14.1166 13.8335 13.8213C14.2904 13.4459 14.7788 13.1219 15.3013 12.8563C15.7475 12.6296 16.2101 12.4446 16.6903 12.3065C17.1491 12.1745 17.6162 12.0889 18.0881 12.0309C18.1197 12.0269 18.1513 12.0259 18.1839 12.0259C18.2399 12.0259 18.2978 12.0294 18.36 12.0294V12.2174C18.36 12.7233 18.3581 13.2292 18.3615 13.7346V13.7351Z" fill="#9D9D9D"/>
</svg>
