<svg width="22" height="23" viewBox="0 0 22 23" fill="none" xmlns="http://www.w3.org/2000/svg">
<path d="M13.6477 22.5H8.35229C7.97042 22.5 7.63588 22.2458 7.53619 21.8789L6.9127 19.5865L6.01379 19.0698L3.70908 19.6774C3.34073 19.775 2.95211 19.6135 2.76118 19.2852L0.113463 14.7173C-0.0774695 14.3874 -0.0233952 13.9733 0.245262 13.7024L1.92648 12.0176V10.9824L0.245262 9.29764C-0.0233952 9.02835 -0.0774695 8.61261 0.113463 8.28272L2.76118 3.71475C2.95211 3.38486 3.34073 3.22496 3.70908 3.32258L6.01379 3.93019L6.9127 3.41347L7.53619 1.12107C7.63588 0.75415 7.97042 0.5 8.35229 0.5H13.6477C14.0296 0.5 14.3641 0.75415 14.4638 1.12107L15.0873 3.41347L15.9862 3.93019L18.2909 3.32258C18.661 3.22496 19.0479 3.38654 19.2388 3.71475L21.8865 8.28272C22.0775 8.61261 22.0234 9.02666 21.7547 9.29764L20.0735 10.9824V12.0176L21.7547 13.7024C22.0234 13.9717 22.0775 14.3874 21.8865 14.7173L19.2388 19.2852C19.0479 19.6151 18.6593 19.775 18.2909 19.6774L15.9862 19.0698L15.0873 19.5865L14.4638 21.8789C14.3641 22.2458 14.0296 22.5 13.6477 22.5ZM8.99943 20.8169H13.0023L13.548 18.8106C13.6072 18.5969 13.7474 18.4134 13.9417 18.3023L15.4438 17.4372C15.6381 17.3261 15.8662 17.2958 16.0825 17.353L18.1 17.8849L20.1006 14.4328L18.6289 12.9584C18.4717 12.8002 18.3838 12.5881 18.3838 12.3643V10.6357C18.3838 10.4135 18.4717 10.1998 18.6289 10.0416L20.1006 8.56717L18.1 5.1151L16.0825 5.64697C15.8662 5.70419 15.6365 5.6739 15.4438 5.56281L13.9417 4.69937C13.7491 4.58829 13.6072 4.40483 13.548 4.19107L13.0023 2.1848H8.99943L8.45367 4.19107C8.39454 4.40483 8.25429 4.58829 8.05998 4.69937L6.55786 5.56281C6.36524 5.6739 6.13545 5.70419 5.91917 5.64697L3.90171 5.1151L1.90114 8.56717L3.37284 10.0416C3.52998 10.1998 3.61784 10.4119 3.61784 10.6357V12.3643C3.61784 12.5865 3.52998 12.8002 3.37284 12.9584L1.90114 14.4328L3.90171 17.8849L5.91917 17.353C6.13545 17.2958 6.36524 17.3261 6.55786 17.4372L8.06167 18.3023C8.25429 18.4134 8.39623 18.5969 8.45537 18.8106L9.00113 20.8169H8.99943ZM11 15.3383C8.87609 15.3383 7.14755 13.6165 7.14755 11.5008C7.14755 9.38517 8.87609 7.66334 11 7.66334C13.1239 7.66334 14.8524 9.38517 14.8524 11.5008C14.8524 13.6165 13.1239 15.3383 11 15.3383ZM11 9.34645C9.8071 9.34645 8.83722 10.3126 8.83722 11.5008C8.83722 12.6891 9.8071 13.6552 11 13.6552C12.1929 13.6552 13.1628 12.6891 13.1628 11.5008C13.1628 10.3126 12.1929 9.34645 11 9.34645Z" fill="#373737"/>
</svg>
