<svg width="23" height="23" viewBox="0 0 23 23" fill="none" xmlns="http://www.w3.org/2000/svg">
<path d="M21.8528 9.59516V3.79839L18.1984 0.5H9.72287V3.26129H4.09751V8.19355C1.79411 8.43064 0 10.1984 0 12.3403V20.0129C0 21.3839 1.23658 22.5 2.75549 22.5H20.2445C21.7634 22.5 23 21.3839 23 20.0129V12.3403C23 11.2903 22.5676 10.3306 21.8546 9.59516H21.8528ZM11.5098 2.1129H17.4586L20.0658 4.46613V8.45645C19.6977 8.32581 19.3063 8.23548 18.9007 8.19355V6.55968L15.2464 3.26129H11.5098V2.1129ZM14.5048 4.87419L17.1137 7.22903V8.16613H15.0319L13.9455 9.87097C13.4344 10.6726 12.5177 11.1532 11.492 11.1532H11.4884C10.4645 11.1532 9.54774 10.6758 9.03488 9.87581L7.93948 8.16613H5.8809V4.87419H14.503H14.5048ZM21.2112 20.0113C21.2112 20.4935 20.777 20.8855 20.2427 20.8855H2.75371C2.21941 20.8855 1.78517 20.4935 1.78517 20.0113V12.3387C1.78517 10.9258 3.05749 9.77742 4.62287 9.77742H6.91018L7.48916 10.6823C8.32546 11.9871 9.81936 12.7661 11.4884 12.7661H11.4937C13.1646 12.7645 14.6602 11.9823 15.493 10.6742L16.063 9.77903H18.37C19.9354 9.77903 21.2077 10.9274 21.2077 12.3403V20.0129L21.2112 20.0113Z" fill="#373737"/>
</svg>
