<svg width="6" height="15" viewBox="0 0 6 15" fill="none" xmlns="http://www.w3.org/2000/svg">
<path d="M6 10.8443V13.6879C6 14.4135 5.4113 15 4.68791 15H1.84432C1.12093 15 0.532227 14.4113 0.532227 13.6879L0.532227 10.8465C0.532227 10.1209 1.12093 9.5344 1.84432 9.5344H4.68574C5.4113 9.5344 5.99783 10.1231 5.99783 10.8465L6 10.8443ZM4.68791 0H1.84432C1.11876 0 0.532227 0.588705 0.532227 1.31209L0.532227 4.15351C0.532227 4.87907 1.12093 5.4656 1.84432 5.4656H4.68574C5.4113 5.4656 5.99783 4.8769 5.99783 4.15351V1.31209C5.99783 0.586533 5.40913 0 4.68574 0H4.68791Z" fill="#9D9D9D"/>
</svg>
