<svg width="23" height="23" viewBox="0 0 23 23" fill="none" xmlns="http://www.w3.org/2000/svg">
<path d="M9.3721 15.0215C8.67837 15.0215 8.08469 14.5908 7.89624 13.9488L6.79727 10.2024L3.53372 9.15687C2.89668 8.95353 2.48644 8.40437 2.48644 7.76075C2.48644 7.11713 2.89835 6.56797 3.53372 6.36464L6.79727 5.31915L7.89624 1.5727C8.08469 0.930682 8.67837 0.5 9.3721 0.5C10.0658 0.5 10.6595 0.930682 10.848 1.5727L11.9469 5.31915L15.2105 6.36464C15.8475 6.56797 16.2578 7.11713 16.2578 7.76075C16.2578 8.40437 15.8458 8.95353 15.2105 9.15687L11.9469 10.2024L10.848 13.9488C10.6595 14.5908 10.0658 15.0215 9.3721 15.0215ZM4.44257 7.76075L7.39262 8.70537C7.87456 8.86067 8.24478 9.23212 8.38319 9.70282L9.3721 13.0746L10.361 9.70282C10.4978 9.23372 10.868 8.86067 11.3516 8.70537L14.3016 7.76075L11.3516 6.81613C10.8696 6.66083 10.4994 6.28779 10.361 5.81868L9.3721 2.44848L8.38319 5.82028C8.24478 6.28939 7.87456 6.66243 7.39262 6.81774L4.44257 7.76235V7.76075ZM18.344 17.1637C17.767 17.1637 17.2733 16.8051 17.1166 16.2703L16.4662 14.0561L14.5601 13.4461C14.0381 13.2796 13.6879 12.8121 13.6879 12.2853C13.6879 11.7586 14.0381 11.2911 14.5601 11.1246L16.4662 10.5146L17.1166 8.30031C17.2733 7.76716 17.767 7.40852 18.344 7.40852C18.921 7.40852 19.4146 7.76716 19.5713 8.30031L20.2217 10.5146L22.1278 11.1246C22.6498 11.2911 23 11.7586 23 12.2853C23 12.8121 22.6498 13.2796 22.1278 13.4461L20.2217 14.0561L19.5713 16.2703C19.4146 16.8035 18.921 17.1621 18.344 17.1621V17.1637ZM16.2027 12.2853L17.1916 12.6023C17.5919 12.7304 17.9004 13.041 18.0154 13.4317L18.344 14.5524L18.6725 13.4317C18.7876 13.041 19.0961 12.7304 19.4963 12.6023L20.4835 12.2853L19.4946 11.9683C19.0927 11.8386 18.7859 11.5296 18.6708 11.139L18.3423 10.0182L18.0138 11.139C17.8987 11.5296 17.5919 11.8402 17.19 11.9683L16.2011 12.2853H16.2027ZM4.65603 22.5C4.07903 22.5 3.58541 22.1414 3.42865 21.6082L2.77828 19.394L0.872171 18.784C0.350202 18.6175 0 18.15 0 17.6216C0 17.0933 0.350202 16.6274 0.872171 16.4608L2.77828 15.8492L3.42865 13.635C3.58541 13.1018 4.07903 12.7432 4.65603 12.7432C5.23303 12.7432 5.72665 13.1018 5.88341 13.635L6.53379 15.8492L8.43989 16.4592C8.96186 16.6258 9.31206 17.0933 9.31206 17.62C9.31206 18.1468 8.96186 18.6143 8.43989 18.7808L6.53379 19.3924L5.88341 21.6066C5.72665 22.1398 5.23303 22.4984 4.65603 22.4984V22.5ZM2.51479 17.6216L3.5037 17.9386C3.90393 18.0667 4.21244 18.3773 4.32751 18.768L4.65603 19.8887L4.98456 18.768C5.09962 18.3773 5.40813 18.0667 5.80837 17.9386L6.79727 17.6216L5.80837 17.3046C5.40813 17.1765 5.09962 16.8659 4.98456 16.4753L4.65603 15.3545L4.32751 16.4753C4.21244 16.8659 3.90393 17.1765 3.5037 17.3046L2.51479 17.6216Z" fill="#373737"/>
</svg>
