<svg width="23" height="17" viewBox="0 0 23 17" fill="none" xmlns="http://www.w3.org/2000/svg">
<path d="M7.0057 8.08215C7.43663 7.31995 7.85353 6.58161 8.27112 5.84398C9.17581 4.24517 10.0826 2.64848 10.9824 1.04686C11.1662 0.72051 11.3971 0.491007 11.7986 0.487497C12.2113 0.483986 12.4506 0.715595 12.6394 1.05178C13.9048 3.30049 15.1759 5.54639 16.4455 7.79299C16.4967 7.88353 16.5501 7.97267 16.6154 8.08426C16.7438 8.02811 16.8638 7.98179 16.9789 7.92564C18.49 7.19432 19.9989 6.45878 21.5115 5.73167C22.1073 5.44532 22.713 5.74571 22.7944 6.37667C22.8189 6.56757 22.7607 6.77391 22.7165 6.96762C22.0553 9.89646 21.3921 12.8239 20.726 15.7513C20.6095 16.2614 20.3155 16.4875 19.7933 16.4875C14.4783 16.4875 9.16387 16.4875 3.84881 16.4875C3.26908 16.4875 2.97992 16.2607 2.8543 15.6901C2.44442 13.824 2.03875 11.9563 1.63168 10.0895C1.39727 9.01489 1.16917 7.93968 0.923521 6.86796C0.830175 6.46159 0.849126 6.09734 1.19654 5.82291C1.54395 5.5485 1.904 5.61587 2.27808 5.79905C3.74564 6.51914 5.21881 7.228 6.68987 7.94038C6.78322 7.9853 6.87867 8.02531 7.0057 8.08215Z" fill="#FFBE17"/>
</svg>
