<svg width="33" height="33" viewBox="0 0 33 33" fill="none" xmlns="http://www.w3.org/2000/svg">
<path d="M28.1651 28.1733C21.7328 34.6089 11.2652 34.6089 4.83086 28.1733C1.71569 25.0545 0 20.9111 0 16.5003C0 12.0894 1.71569 7.946 4.8329 4.8272C8.05007 1.60839 12.273 0 16.5 0C20.727 0 24.9499 1.60839 28.1671 4.8272C31.2843 7.94396 33 12.0894 33 16.5003C33 20.9111 31.2843 25.0545 28.1671 28.1733H28.1651ZM26.7227 6.27026C21.084 0.628658 11.9119 0.630699 6.27318 6.27026C3.54154 9.00329 2.03802 12.6365 2.03802 16.5003C2.03802 20.3641 3.54154 23.9972 6.27318 26.7302C9.09254 29.5511 12.7953 30.9594 16.498 30.9594C20.2007 30.9594 23.9034 29.549 26.7227 26.7302C29.4523 23.9972 30.9579 20.3641 30.9579 16.5003C30.9579 12.6365 29.4544 9.00329 26.7227 6.27026ZM22.6549 21.2172L17.9403 16.5003L22.6549 11.7833C23.0527 11.3853 23.0527 10.7382 22.6549 10.3402C22.4549 10.1402 22.1938 10.0422 21.9327 10.0422C21.6716 10.0422 21.4104 10.1422 21.2105 10.3402L16.4959 15.0572L11.7813 10.3402C11.5814 10.1402 11.3203 10.0422 11.0592 10.0422C10.798 10.0422 10.5369 10.1422 10.337 10.3402C9.93917 10.7382 9.93917 11.3853 10.337 11.7833L15.0516 16.5003L10.337 21.2172C9.93917 21.6153 9.93917 22.2623 10.337 22.6603C10.7348 23.0583 11.3815 23.0583 11.7793 22.6603L16.4939 17.9433L21.2085 22.6603C21.6063 23.0583 22.253 23.0583 22.6508 22.6603C23.0486 22.2623 23.0486 21.6153 22.6508 21.2172H22.6549Z" fill="#9D9D9D"/>
</svg>
