<svg width="26" height="27" viewBox="0 0 26 27" fill="none" xmlns="http://www.w3.org/2000/svg">
<path d="M16.4521 10.0411C16.4102 10.0631 16.3654 10.0808 16.327 10.1075C15.2629 10.8441 14.1994 11.5816 13.1362 12.3198C12.4705 12.7824 11.8056 13.2467 11.1402 13.7097C11.1316 13.7158 11.1208 13.7183 11.0988 13.7274C11.0578 13.7162 11.0061 13.7045 10.956 13.6881C9.11708 13.0754 7.27815 12.4614 5.43879 11.8495C5.08067 11.7304 4.84293 11.5 4.74715 11.1302C4.74499 11.1211 4.7342 11.1138 4.72729 11.106C4.72729 10.9662 4.72729 10.826 4.72729 10.6862C4.7342 10.6784 4.74542 10.6715 4.74758 10.6629C4.83862 10.3125 5.05996 10.0834 5.39867 9.96515C5.49963 9.92977 5.60318 9.90215 5.70501 9.86892C6.59168 9.58241 7.47792 9.29503 8.36503 9.00894C9.3436 8.69352 10.323 8.38025 11.3016 8.06525C12.2293 7.76665 13.1565 7.4659 14.0842 7.1673C15.1037 6.83936 16.1237 6.51314 17.1433 6.18477C17.9333 5.93019 18.7229 5.67388 19.5121 5.41713C19.6985 5.35629 19.8831 5.2907 20.0687 5.22727C20.2192 5.22727 20.3703 5.22727 20.5208 5.22727C20.5683 5.24885 20.6149 5.27172 20.6628 5.29113C21.1007 5.46762 21.3803 5.95392 21.2332 6.46697C21.1417 6.78585 21.0339 7.09998 20.932 7.41628C20.5118 8.72113 20.0915 10.026 19.6708 11.3304C19.3667 12.2732 19.062 13.2156 18.7583 14.1585C18.4481 15.122 18.1391 16.0856 17.8293 17.0491C17.5277 17.9872 17.2248 18.9244 16.9232 19.8625C16.8055 20.2297 16.6928 20.5982 16.572 20.9645C16.5336 21.0806 16.4892 21.1984 16.4258 21.3024C16.204 21.6662 15.8644 21.818 15.4528 21.7611C15.0675 21.708 14.7935 21.4845 14.6671 21.1078C14.3116 20.0519 13.9595 18.9947 13.607 17.938C13.3425 17.1453 13.0784 16.3527 12.8143 15.5596C12.7923 15.494 12.7747 15.4271 12.7539 15.3576C12.8847 15.1678 13.0111 14.9818 13.1401 14.7971C13.5064 14.2733 13.8745 13.7507 14.2412 13.2269C14.9501 12.215 15.659 11.2031 16.3671 10.1904C16.4003 10.1429 16.4232 10.089 16.4512 10.0381C16.462 10.0269 16.4728 10.0161 16.4836 10.0048C16.487 10.0014 16.4905 9.99751 16.4935 9.99406C16.4909 9.99881 16.4888 10.0031 16.4862 10.0079C16.4749 10.0187 16.4642 10.0294 16.4534 10.0402L16.4521 10.0411Z" fill="#9D9D9D"/>
</svg>
