<svg width="38" height="39" viewBox="0 0 38 39" fill="none" xmlns="http://www.w3.org/2000/svg">
<path opacity="0.2" d="M19 38.25C29.4934 38.25 38 29.7434 38 19.25C38 8.75659 29.4934 0.25 19 0.25C8.50659 0.25 0 8.75659 0 19.25C0 29.7434 8.50659 38.25 19 38.25Z" fill="black"/>
<path d="M14.6315 18.3013V13.5096C14.6315 11.0966 16.5871 9.14099 19 9.14099C21.4129 9.14099 23.3686 11.0966 23.3686 13.5096V18.3013C23.3686 20.7143 21.4129 22.6699 19 22.6699C16.5871 22.6699 14.6315 20.7143 14.6315 18.3013ZM26.3818 18.3629C26.3818 18.0876 26.1582 17.864 25.883 17.864C25.6077 17.864 25.3841 18.0876 25.3841 18.3629C25.3841 21.8833 22.5205 24.7469 19 24.7469C15.4796 24.7469 12.616 21.8833 12.616 18.3629C12.616 18.0876 12.3923 17.864 12.1171 17.864C11.8419 17.864 11.6182 18.0876 11.6182 18.3629C11.6182 22.2658 14.6622 25.4695 18.5011 25.7272V29.3591C18.5011 29.6343 18.7248 29.858 19 29.858C19.2752 29.858 19.4989 29.6343 19.4989 29.3591V25.7272C23.337 25.4695 26.3818 22.265 26.3818 18.3629Z" fill="white"/>
</svg>
