<svg width="26" height="27" viewBox="0 0 26 27" fill="none" xmlns="http://www.w3.org/2000/svg">
<path d="M16.5195 4.05583C16.5195 4.14383 16.5195 4.2119 16.5195 4.27942C16.5195 4.97673 16.5091 5.67404 16.5231 6.3708C16.5365 7.06368 16.7705 7.67245 17.2023 8.18934C17.5922 8.65588 18.0782 8.94919 18.6479 9.07814C18.7977 9.1119 18.9526 9.13072 19.106 9.13238C19.75 9.13846 20.3941 9.13514 21.0381 9.1357C21.1073 9.1357 21.1765 9.1357 21.2556 9.1357C21.2612 9.20986 21.2685 9.26298 21.2685 9.31611C21.269 11.0898 21.2798 12.8641 21.2649 14.6378C21.2561 15.7159 20.8832 16.6379 20.1172 17.3551C19.6374 17.804 19.0807 18.089 18.4444 18.1764C18.2858 18.198 18.1252 18.2151 17.9656 18.2157C16.0268 18.2185 14.0879 18.2174 12.1491 18.2174C11.3087 18.2174 10.5816 17.9036 9.95713 17.3059C9.38488 16.758 9.04245 16.0728 8.90507 15.2682C8.87511 15.0933 8.86065 14.9129 8.86014 14.7347C8.85704 12.3395 8.85239 9.9448 8.86169 7.54959C8.86478 6.73218 9.12561 6.00222 9.60851 5.36468C10.0971 4.71939 10.7267 4.31815 11.4771 4.13719C11.707 4.08184 11.9471 4.05141 12.1826 4.0503C13.574 4.04255 14.9654 4.04642 16.3568 4.04642C16.4012 4.04642 16.4451 4.05141 16.519 4.05583H16.5195ZM7.31381 7.68407C6.56388 7.86338 5.95083 8.28509 5.46947 8.91931C4.95454 9.59725 4.72884 10.3881 4.72833 11.2559C4.72729 13.5061 4.72833 15.7568 4.72729 18.0076C4.72729 18.2976 4.74692 18.5848 4.79754 18.8693C4.95454 19.7531 5.37237 20.4698 6.02933 21.021C6.64239 21.5357 7.35358 21.7681 8.12777 21.7698C9.98967 21.7742 11.8516 21.7737 13.7135 21.7681C13.9433 21.7676 14.1757 21.7404 14.4019 21.6967C15.4726 21.4892 16.2509 20.8505 16.7638 19.83C16.8077 19.7426 16.8547 19.6546 16.8645 19.5312H16.6419C15.1859 19.5312 13.73 19.5312 12.2735 19.5312C11.913 19.5312 11.5561 19.4902 11.2039 19.4078C10.4137 19.224 9.72162 18.8311 9.12457 18.2522C8.59622 17.7398 8.2037 17.1216 7.95011 16.4077C7.76882 15.8974 7.65778 15.3689 7.66243 14.8182C7.66346 14.7076 7.66088 14.5974 7.66088 14.4867C7.66088 12.2847 7.66088 10.0821 7.66088 7.87998C7.66088 7.79974 7.65571 7.71949 7.65262 7.61766C7.52453 7.64256 7.41865 7.65917 7.31432 7.68407H7.31381ZM17.7182 4.54174C17.7172 5.10069 17.7105 5.65965 17.7203 6.21805C17.7254 6.52188 17.7817 6.81852 17.9393 7.0825C18.2445 7.59552 18.6907 7.83903 19.248 7.84954C19.7629 7.85951 20.2784 7.85231 20.7933 7.85065C20.8346 7.85065 20.876 7.83848 20.9488 7.82741C20.8615 7.71672 20.7985 7.62319 20.7231 7.54239C19.8187 6.57003 18.9128 5.59933 18.0054 4.62973C17.93 4.54949 17.8411 4.48363 17.7399 4.39397C17.7296 4.46426 17.7193 4.50244 17.7193 4.54063L17.7182 4.54174Z" fill="#9D9D9D"/>
</svg>
