<svg width="26" height="27" viewBox="0 0 26 27" fill="none" xmlns="http://www.w3.org/2000/svg">
<path d="M5.7459 11.6294C5.85655 11.0792 5.99713 10.5589 6.19438 10.0557C6.46592 9.36246 6.83048 8.72777 7.29713 8.15441C8.09948 7.16896 9.10121 6.4807 10.2483 5.99682C10.8839 5.72891 11.5403 5.53945 12.2106 5.40301C12.5543 5.33286 12.9066 5.30524 13.2551 5.26436C13.4198 5.24503 13.586 5.22846 13.7517 5.22735C14.406 5.22128 14.8978 5.70129 15.0555 6.21887C15.2789 6.95409 14.8299 7.78542 14.0944 7.95997C13.8233 8.02404 13.547 8.06271 13.276 8.12623C12.6773 8.26599 12.1096 8.49301 11.5692 8.79461C11.133 9.03766 10.731 9.32987 10.3734 9.68228C10.0976 9.9535 9.86186 10.2606 9.67958 10.6092C9.5406 10.876 9.41819 11.1494 9.33801 11.4538C9.41445 11.4433 9.48982 11.4366 9.56412 11.4228C10.3109 11.2869 10.9978 11.8355 11.1528 12.5359C11.2479 12.9662 11.1667 13.3716 10.9176 13.7279C10.142 14.8371 9.361 15.9418 8.57896 17.0466C8.30154 17.4382 7.93003 17.6835 7.4575 17.7117C6.93685 17.7426 6.50815 17.5288 6.19705 17.0946C5.63097 16.3042 5.07398 15.5077 4.51271 14.7133C4.29302 14.4024 4.07653 14.0892 3.85202 13.7815C3.60186 13.4396 3.50029 13.0529 3.5639 12.6364C3.63019 12.2039 3.85042 11.8587 4.21818 11.6233C4.43841 11.4825 4.67949 11.4079 4.93393 11.3952C5.1547 11.3842 5.36744 11.4466 5.5695 11.541C5.62402 11.5664 5.67694 11.5952 5.74536 11.63L5.7459 11.6294ZM15.172 17.742C14.2964 18.411 13.3123 18.8192 12.2374 18.9981C12.0615 19.0274 11.8798 19.0561 11.7178 19.1268C11.1298 19.3837 10.8315 19.9543 10.9176 20.6266C11.0031 21.2955 11.5997 21.775 12.1224 21.7727C12.4143 21.7716 12.7083 21.7617 12.998 21.728C13.3727 21.6844 13.749 21.6341 14.1168 21.5501C15.0154 21.3458 15.8776 21.0315 16.6853 20.5697C17.4855 20.1117 18.1937 19.5351 18.7705 18.7976C19.4627 17.9122 19.9187 16.9057 20.1705 15.7993C20.2004 15.6673 20.2309 15.5358 20.2629 15.3955C20.3121 15.4176 20.349 15.432 20.3838 15.4508C20.9557 15.7596 21.6875 15.6364 22.1221 15.0995C22.4198 14.7321 22.508 14.3134 22.4246 13.8467C22.3781 13.5876 22.2488 13.3749 22.1034 13.1683C21.3593 12.1122 20.6152 11.056 19.8706 9.9999C19.5525 9.54861 19.1372 9.29175 18.5818 9.31495C18.1446 9.33373 17.7811 9.5116 17.5149 9.87009C17.1952 10.3015 16.8895 10.7429 16.5789 11.1814C16.0919 11.8697 15.6066 12.5591 15.1201 13.2479C14.8881 13.5766 14.786 13.9339 14.8331 14.3482C14.9085 15.0061 15.489 15.6054 16.1726 15.6099C16.3303 15.611 16.4886 15.5911 16.6644 15.58C16.4116 16.4865 15.8909 17.1924 15.1709 17.7426L15.172 17.742Z" fill="#9D9D9D"/>
</svg>
