<svg width="22" height="23" viewBox="0 0 22 23" fill="none" xmlns="http://www.w3.org/2000/svg">
<path d="M20.182 8.90898V18.0221C20.182 20.4912 18.1416 22.5 15.6338 22.5H4.54815C2.04034 22.5 0 20.4912 0 18.0221V7.1078C0 4.63876 2.04034 2.62995 4.54815 2.62995H13.126L11.3686 4.36019H4.54815C3.00867 4.36019 1.7574 5.59212 1.7574 7.1078V18.0221C1.7574 19.5378 3.00867 20.7698 4.54815 20.7698H15.6338C17.1733 20.7698 18.4246 19.5378 18.4246 18.0221V10.6392L20.182 8.90898ZM7.21939 16.965L11.4038 15.5773C11.6621 15.4908 11.9046 15.3437 12.0997 15.15L21.312 6.08004C22.1678 5.23742 22.2346 3.93109 21.4596 3.16805L19.2927 1.03467C18.9026 0.650557 18.3455 0.460231 17.7691 0.506947C17.2383 0.551933 16.7304 0.790706 16.335 1.18001L7.12274 10.2499C6.92591 10.4437 6.77477 10.6807 6.68866 10.9351L5.27923 15.0548C5.08415 15.624 5.21596 16.2262 5.62368 16.6258C5.90662 16.9044 6.28797 17.0515 6.6869 17.0515C6.86264 17.0515 7.0419 17.0221 7.21939 16.965ZM18.052 2.25622L20.2189 4.3896C20.2751 4.44497 20.261 4.66817 20.0713 4.85503L10.8572 13.9267C10.8572 13.9267 10.8432 13.9371 10.8414 13.9388L7.08935 15.1828L8.35292 11.4888C8.35292 11.4888 8.35819 11.4801 8.36522 11.4732L17.5775 2.40329C17.6794 2.30293 17.8042 2.24065 17.9202 2.23026C17.9272 2.23026 17.936 2.23026 17.9483 2.23026C17.9799 2.23026 18.0256 2.23545 18.0502 2.25795L18.052 2.25622Z" fill="#03BE64"/>
</svg>
