<svg width="26" height="27" viewBox="0 0 26 27" fill="none" xmlns="http://www.w3.org/2000/svg">
<path d="M6.20967 8.81256C6.11421 8.81256 6.04554 8.81256 5.97744 8.81256C5.50405 8.81256 5.03066 8.81256 4.55727 8.81256C4.37473 8.81256 4.20056 8.77655 4.0342 8.69037C3.70149 8.51858 3.50667 8.11008 3.55189 7.76533C3.61608 7.2789 3.88348 6.98078 4.29379 6.90877C4.40264 6.88987 4.51373 6.87512 4.62426 6.87512C9.86 6.87335 15.0963 6.87394 20.332 6.87335C20.5352 6.87335 20.7312 6.89991 20.9176 6.99672C21.2464 7.16792 21.444 7.57583 21.3971 7.92294C21.3313 8.40996 21.0656 8.70571 20.6536 8.77714C20.538 8.79721 20.4197 8.80961 20.3024 8.81079C19.857 8.81433 19.4115 8.81256 18.9655 8.81256C18.8973 8.81256 18.8298 8.81256 18.7399 8.81256C18.7399 8.92 18.7399 9.00678 18.7399 9.09297C18.7399 12.7229 18.741 16.3528 18.7382 19.9827C18.7382 20.403 18.6757 20.8133 18.515 21.2047C18.2861 21.7613 17.9322 22.2011 17.4437 22.5187C17.0898 22.749 16.7096 22.8977 16.2909 22.9196C16.0693 22.9308 15.8471 22.9508 15.6255 22.9514C13.4115 22.9538 11.197 22.9573 8.983 22.9508C8.18305 22.9485 7.48748 22.6545 6.93817 22.0264C6.5301 21.56 6.28168 21.0116 6.24204 20.3699C6.22641 20.1208 6.21134 19.8717 6.21134 19.622C6.20911 16.1172 6.21023 12.6125 6.21023 9.10773C6.21023 9.02036 6.21023 8.93299 6.21023 8.81256H6.20967ZM11.5576 14.9307H11.5559C11.5559 14.1208 11.561 13.3114 11.5537 12.5015C11.5503 12.1266 11.3672 11.8533 11.0457 11.7128C10.723 11.5717 10.406 11.606 10.1263 11.8504C9.88791 12.0588 9.80641 12.3392 9.80641 12.6538C9.80585 14.1556 9.80529 15.6574 9.80753 17.1592C9.80753 17.2678 9.82427 17.3782 9.84493 17.485C9.91359 17.8363 10.1313 18.0624 10.4428 18.1545C10.7504 18.2454 11.0507 18.1899 11.2952 17.9425C11.4755 17.7601 11.5593 17.5364 11.5582 17.2719C11.5554 16.4915 11.557 15.7111 11.557 14.9313L11.5576 14.9307ZM15.1426 14.9301C15.1426 14.1863 15.1443 13.4431 15.141 12.6999C15.1404 12.5765 15.127 12.4507 15.1013 12.3297C15.0031 11.861 14.5442 11.518 14.001 11.6739C13.6002 11.789 13.387 12.1963 13.3892 12.5222C13.3959 13.3687 13.3903 14.2152 13.3909 15.0617C13.3909 15.8126 13.3875 16.5635 13.3937 17.3144C13.3965 17.6993 13.5823 17.9779 13.9134 18.1179C14.245 18.2578 14.5665 18.2153 14.8462 17.9532C15.0656 17.7471 15.141 17.4791 15.1421 17.1828C15.1449 16.4319 15.1432 15.681 15.1432 14.9301H15.1426ZM14.0987 5.98255C14.2159 5.98196 14.3349 5.97015 14.4493 5.94535C14.8166 5.86684 15.0818 5.57581 15.1432 5.21099C15.2102 4.81311 15.0974 4.46954 14.7697 4.22869C14.5799 4.08937 14.3644 4.04569 14.1383 4.04569C13.0459 4.04569 11.9528 4.04451 10.8604 4.04746C10.7504 4.04746 10.6399 4.06458 10.5299 4.08052C10.1687 4.13247 9.87284 4.43353 9.80808 4.8078C9.74221 5.18679 9.82539 5.54689 10.1871 5.80781C10.3658 5.9365 10.5673 5.98314 10.7789 5.98373C11.3427 5.98609 11.9065 5.98491 12.4703 5.98491C13.0129 5.98491 13.5561 5.98727 14.0987 5.98314V5.98255Z" fill="#F34F4F"/>
</svg>
