<svg width="20" height="20" viewBox="0 0 20 20" fill="none" xmlns="http://www.w3.org/2000/svg">
<g clip-path="url(#clip0_100_3)">
<path d="M10.0007 20.0013C15.5239 20.0013 20.0013 15.5239 20.0013 10.0007C20.0013 4.47745 15.5239 0 10.0007 0C4.47745 0 0 4.47745 0 10.0007C0 15.5239 4.47745 20.0013 10.0007 20.0013Z" fill="url(#paint0_linear_100_3)"/>
<path d="M8.45746 14.6715C8.12007 14.6715 7.78267 14.5423 7.52567 14.2853L3.9026 10.6623C3.38728 10.1469 3.38728 9.31266 3.9026 8.79866C4.41793 8.28466 5.25219 8.28466 5.7662 8.79866L8.45615 11.4886L14.2314 5.71332C14.7468 5.19932 15.581 5.19932 16.095 5.71332C16.6103 6.22864 16.6103 7.06291 16.095 7.57691L9.38662 14.2853C9.12962 14.5423 8.79223 14.6715 8.45483 14.6715H8.45746Z" fill="#191919"/>
</g>
<defs>
<linearGradient id="paint0_linear_100_3" x1="4.57173" y1="24.4016" x2="23.8462" y2="21.6542" gradientUnits="userSpaceOnUse">
<stop stop-color="#6935FF"/>
<stop offset="1" stop-color="#218EF2"/>
</linearGradient>
<clipPath id="clip0_100_3">
<rect width="20" height="20" fill="white"/>
</clipPath>
</defs>
</svg>
