<svg width="19" height="19" viewBox="0 0 19 19" fill="none" xmlns="http://www.w3.org/2000/svg">
<path d="M18.7575 17.5859L14.6147 13.4429C17.2572 10.2101 17.0716 5.42386 14.0577 2.40989C10.8449 -0.803021 5.61951 -0.803021 2.40836 2.40823C-0.802788 5.61949 -0.802788 10.845 2.40836 14.0579C4.01477 15.6644 6.12348 16.4668 8.2322 16.4668C10.0823 16.4668 11.9307 15.8484 13.441 14.615L17.5838 18.758C17.7463 18.9204 17.9585 19 18.1707 19C18.3829 19 18.5951 18.9188 18.7575 18.758C19.0808 18.4347 19.0808 17.9091 18.7575 17.5859ZM3.58043 12.8858C1.01581 10.3212 1.01581 6.14669 3.58043 3.58033C4.86356 2.29716 6.54788 1.65557 8.2322 1.65557C9.91652 1.65557 11.6025 2.29716 12.884 3.58033C15.4486 6.14503 15.4486 10.3195 12.884 12.8858C10.3194 15.4505 6.14504 15.4505 3.57877 12.8858H3.58043Z" fill="#9D9D9D"/>
</svg>
