<svg width="104" height="51" viewBox="0 0 104 51" fill="none" xmlns="http://www.w3.org/2000/svg">
<path d="M7.616 30.796H13.608V35.5H1.4V15.676H7.616V30.796ZM18.7001 18.448C17.6174 18.448 16.7494 18.1587 16.0961 17.58C15.4427 17.0013 15.1161 16.2733 15.1161 15.396C15.1161 14.5 15.4427 13.7627 16.0961 13.184C16.7494 12.5867 17.6174 12.288 18.7001 12.288C19.7641 12.288 20.6227 12.5867 21.2761 13.184C21.9294 13.7627 22.2561 14.5 22.2561 15.396C22.2561 16.2733 21.9294 17.0013 21.2761 17.58C20.6227 18.1587 19.7641 18.448 18.7001 18.448ZM21.7801 19.708V35.5H15.5641V19.708H21.7801ZM34.4155 30.208V35.5H32.0635C27.7328 35.5 25.5675 33.344 25.5675 29.032V24.888H23.6075V19.708H25.5675V15.9H31.7835V19.708H34.3595V24.888H31.7835V29.144C31.7835 29.5173 31.8675 29.788 32.0355 29.956C32.2222 30.124 32.5208 30.208 32.9315 30.208H34.4155Z" fill="url(#paint0_linear_102_264)"/>
<path d="M43.6148 15.984C45.7428 15.984 47.5815 16.3853 49.1308 17.188C50.6988 17.972 51.8935 19.1013 52.7148 20.576C53.5548 22.0507 53.9748 23.7867 53.9748 25.784C53.9748 27.7813 53.5548 29.5173 52.7148 30.992C51.8935 32.448 50.6988 33.568 49.1308 34.352C47.5815 35.1173 45.7428 35.5 43.6148 35.5H37.5388V15.984H43.6148ZM43.6148 33.4C46.1348 33.4 48.0575 32.7373 49.3828 31.412C50.7081 30.068 51.3708 28.192 51.3708 25.784C51.3708 23.3573 50.6988 21.4627 49.3548 20.1C48.0295 18.7373 46.1161 18.056 43.6148 18.056H40.0868V33.4H43.6148ZM59.8837 22.648C60.3317 21.7707 60.9664 21.0893 61.7877 20.604C62.6277 20.1187 63.645 19.876 64.8397 19.876V22.508H64.1677C61.3117 22.508 59.8837 24.0573 59.8837 27.156V35.5H57.3357V20.156H59.8837V22.648ZM66.829 27.772C66.829 26.204 67.1463 24.832 67.781 23.656C68.4157 22.4613 69.2837 21.5373 70.385 20.884C71.505 20.2307 72.7463 19.904 74.109 19.904C75.453 19.904 76.6197 20.1933 77.609 20.772C78.5983 21.3507 79.3357 22.0787 79.821 22.956V20.156H82.397V35.5H79.821V32.644C79.317 33.54 78.561 34.2867 77.553 34.884C76.5637 35.4627 75.4063 35.752 74.081 35.752C72.7183 35.752 71.4863 35.416 70.385 34.744C69.2837 34.072 68.4157 33.1293 67.781 31.916C67.1463 30.7027 66.829 29.3213 66.829 27.772ZM79.821 27.8C79.821 26.6427 79.5877 25.6347 79.121 24.776C78.6543 23.9173 78.0197 23.264 77.217 22.816C76.433 22.3493 75.565 22.116 74.613 22.116C73.661 22.116 72.793 22.34 72.009 22.788C71.225 23.236 70.5997 23.8893 70.133 24.748C69.6663 25.6067 69.433 26.6147 69.433 27.772C69.433 28.948 69.6663 29.9747 70.133 30.852C70.5997 31.7107 71.225 32.3733 72.009 32.84C72.793 33.288 73.661 33.512 74.613 33.512C75.565 33.512 76.433 33.288 77.217 32.84C78.0197 32.3733 78.6543 31.7107 79.121 30.852C79.5877 29.9747 79.821 28.9573 79.821 27.8ZM92.9469 22.256H89.7269V35.5H87.1789V22.256H85.1909V20.156H87.1789V19.064C87.1789 17.3467 87.6175 16.096 88.4949 15.312C89.3909 14.5093 90.8189 14.108 92.7789 14.108V16.236C91.6589 16.236 90.8655 16.46 90.3989 16.908C89.9509 17.3373 89.7269 18.056 89.7269 19.064V20.156H92.9469V22.256ZM99.0257 22.256V31.3C99.0257 32.0467 99.1844 32.5787 99.5017 32.896C99.8191 33.1947 100.37 33.344 101.154 33.344H103.03V35.5H100.734C99.3151 35.5 98.2511 35.1733 97.5417 34.52C96.8324 33.8667 96.4777 32.7933 96.4777 31.3V22.256H94.4897V20.156H96.4777V16.292H99.0257V20.156H103.03V22.256H99.0257Z" fill="#9D9D9D"/>
<defs>
<linearGradient id="paint0_linear_102_264" x1="56" y1="31" x2="-38.5" y2="51.5" gradientUnits="userSpaceOnUse">
<stop stop-color="#6935FF"/>
<stop offset="0.51" stop-color="#FF326D"/>
<stop offset="1" stop-color="#FCCD27"/>
</linearGradient>
</defs>
</svg>
