<svg width="47" height="47" viewBox="0 0 47 47" fill="none" xmlns="http://www.w3.org/2000/svg">
<path d="M21.6224 45.1259C21.3252 45.0742 21.0291 45.019 20.7318 44.9708C20.1114 44.8721 19.4886 44.7898 18.8706 44.6782C17.4606 44.4221 16.107 43.9685 14.7886 43.4233C13.9744 43.0861 13.1942 42.6643 12.4151 42.2471C11.5233 41.7701 10.6855 41.2014 9.89242 40.5728C9.37542 40.1627 8.87252 39.735 8.39077 39.285C7.8162 38.748 7.25337 38.1981 6.72227 37.62C6.26755 37.1241 5.84572 36.5954 5.44505 36.0537C5.04555 35.5132 4.69187 34.9375 4.31705 34.3782C4.05855 33.9916 4.0609 33.5897 4.24655 33.1785C4.7612 32.0317 5.438 30.9801 6.237 30.0177C6.75517 29.3938 7.34032 28.8251 7.96425 28.2952C8.77147 27.609 9.65037 27.0356 10.5845 26.5456C11.3294 26.1555 12.1167 25.8618 12.9204 25.608C13.6172 25.3871 14.3339 25.2731 15.0448 25.1344C15.5994 25.0252 16.0952 25.2378 16.5406 25.5586C17.4806 26.2354 18.4958 26.7665 19.592 27.1378C20.3076 27.3799 21.0361 27.5784 21.7917 27.6478C22.3909 27.7018 22.9925 27.8099 23.5894 27.7923C25.6327 27.7312 27.5844 27.2964 29.3598 26.2284C29.6959 26.0263 30.0401 25.8336 30.3586 25.6044C30.9519 25.1779 31.59 25.0451 32.3044 25.1944C33.0705 25.3542 33.8354 25.5198 34.5745 25.7795C35.7577 26.1943 36.861 26.7618 37.8997 27.4692C38.8479 28.1154 39.6881 28.8768 40.453 29.7216C41.4083 30.7791 42.1955 31.953 42.7595 33.269C42.904 33.605 42.8453 33.9187 42.6561 34.2289C42.1509 35.0561 41.6045 35.8551 40.997 36.6107C39.7492 38.1593 38.3427 39.5493 36.7588 40.7537C35.7859 41.494 34.7448 42.1379 33.6556 42.6901C32.3302 43.3622 30.9531 43.9074 29.5173 44.3093C28.7218 44.5325 27.9146 44.6911 27.1085 44.858C26.5763 44.9684 26.0264 44.9896 25.4847 45.0554C25.3789 45.0683 25.2755 45.1024 25.1698 45.1259H21.6236H21.6224Z" fill="#6935FF"/>
<path d="M23.5235 1.88002C29.6452 1.85065 34.7494 6.97717 34.7318 13.1494C34.7142 19.2935 29.6241 24.4036 23.4213 24.3707C17.2889 24.3378 12.2059 19.2571 12.2306 13.066C12.2541 6.93487 17.3524 1.81422 23.5235 1.88002Z" fill="#FFDDB6"/>
</svg>
